<?xml version="1.0" encoding="UTF-8"?>
<svg id="Layer_2" data-name="Layer 2" xmlns="http://www.w3.org/2000/svg" viewBox="0 0 69.18 93.64">
  <defs>
    <style>
      .cls-1 {
        fill: #19695e;
      }
    </style>
  </defs>
  <g id="Layer_1-2" data-name="Layer 1">
    <path class="cls-1" d="M52.39,91.99c-23.67,3.8-45.77,2.08-45.23-15.91.37-12.3-3.42-15.11-7.16-23.97,19.99.76,10.55,20.85,18.02,32.16,4.37-20.42-1.84-39.2-11.22-60.88,15.89,4.19,18.81,18.5,22.5,33.44,3.28-19.3,1.37-38.99,16.33-56.83l.04,61.7,5.43-12.78c3.12-7.33,6.78-13.98,13.11-19.34-5.03,20.59-8.77,34.91-12.01,54.37,11.53-3.12.37-23.71,16.98-26.11l-2.13,11.3c-.48,2.57-.69,5.18-.84,7.79-.43,7.59-6.47,13.87-13.84,15.05ZM40.53,76.46l-3.16-20.35-2.96,20.19c-.2,1.63-.03,3.64.6,5.03.41.9,1.36,1.44,2.35,1.5h0c1.34.08,2.59-.76,2.93-2.06.39-1.53.33-3.08.24-4.3Z"/>
  </g>
</svg>