<?xml version="1.0" encoding="UTF-8"?>
<svg id="Layer_2" data-name="Layer 2" xmlns="http://www.w3.org/2000/svg" viewBox="0 0 716.75 110.98">
  <defs>
    <style>
      .cls-1 {
        fill: #19695e;
      }
    </style>
  </defs>
  <g id="Layer_1-2" data-name="Layer 1">
    <g>
      <path class="cls-1" d="M62.08,109.01c-28.05,4.5-54.24,2.47-53.6-18.85.43-14.58-4.05-17.91-8.48-28.41,23.69.9,12.5,24.71,21.36,38.11,5.18-24.2-2.19-46.46-13.29-72.15,18.83,4.97,22.29,21.93,26.66,39.63,3.89-22.87,1.62-46.2,19.35-67.34l.05,73.12,6.44-15.14c3.7-8.69,8.04-16.57,15.53-22.92-5.96,24.4-10.39,41.37-14.23,64.43,13.67-3.69.44-28.1,20.12-30.95l-2.52,13.4c-.57,3.05-.81,6.14-.99,9.24-.51,8.99-7.67,16.43-16.4,17.83ZM48.03,90.61l-3.74-24.12-3.5,23.92c-.24,1.93-.04,4.32.72,5.96.49,1.07,1.61,1.7,2.78,1.77h0c1.58.09,3.07-.9,3.47-2.44.46-1.81.39-3.65.28-5.1Z"/>
      <g>
        <path d="M118.41,92.99v-42.29h-16.23v-7.87h40.86v7.87h-16.23v42.29h-8.39Z"/>
        <path d="M159.24,94.07c-2.79,0-5.09-.46-6.9-1.39-1.81-.93-3.25-2.11-4.32-3.55-1.07-1.44-1.86-2.97-2.37-4.6-.51-1.63-.84-3.17-.99-4.62s-.23-2.63-.23-3.53v-21h8.5v18.11c0,1.16.08,2.47.24,3.92s.54,2.84,1.13,4.18c.59,1.34,1.47,2.43,2.65,3.29,1.17.86,2.76,1.29,4.75,1.29,1.07,0,2.13-.17,3.17-.52s1.99-.95,2.84-1.79,1.53-2.01,2.04-3.5c.51-1.49.77-3.37.77-5.64l4.98,2.13c0,3.21-.62,6.11-1.86,8.71-1.24,2.6-3.07,4.67-5.49,6.22-2.42,1.54-5.39,2.32-8.92,2.32ZM171.53,92.99v-11.67h-1.01v-25.95h8.43v37.62h-7.42Z"/>
        <path d="M188.71,92.99v-37.62h7.42v9.16l-.91-1.18c.46-1.25,1.09-2.4,1.86-3.43s1.71-1.89,2.8-2.56c.93-.63,1.96-1.12,3.08-1.48,1.13-.36,2.28-.58,3.47-.66s2.33-.03,3.45.16v7.84c-1.11-.33-2.4-.43-3.85-.31-1.45.12-2.76.52-3.92,1.22-1.16.63-2.11,1.43-2.84,2.4s-1.27,2.08-1.62,3.33-.52,2.58-.52,4.02v19.12h-8.43Z"/>
        <path d="M213.71,61.96v-6.58h23.55v6.58h-23.55ZM219.77,92.99v-38.21c0-.95.03-2,.1-3.15s.27-2.29.59-3.43.92-2.17,1.78-3.1c1.07-1.18,2.22-2,3.46-2.46s2.47-.71,3.68-.77c1.21-.06,2.26-.09,3.17-.09h4.7v6.83h-4.35c-1.6,0-2.79.4-3.57,1.2-.78.8-1.17,1.85-1.17,3.15v40.02h-8.39Z"/>
        <path d="M256.77,92.99v-50.16h30.2v8.4h-21.81v12.5h17.62v8.36h-17.62v20.9h-8.39Z"/>
        <path d="M302.36,94.04c-2.72,0-5.02-.52-6.9-1.55s-3.3-2.41-4.27-4.13c-.96-1.72-1.45-3.61-1.45-5.68,0-1.81.3-3.44.91-4.89s1.53-2.71,2.79-3.76c1.25-1.06,2.88-1.92,4.88-2.59,1.51-.49,3.28-.93,5.31-1.32,2.03-.4,4.24-.76,6.62-1.1,2.38-.34,4.87-.7,7.47-1.1l-2.99,1.71c.02-2.6-.56-4.52-1.74-5.75-1.18-1.23-3.18-1.85-5.99-1.85-1.7,0-3.33.4-4.91,1.18-1.58.79-2.68,2.15-3.31,4.08l-7.66-2.4c.93-3.18,2.7-5.73,5.31-7.66,2.61-1.93,6.14-2.89,10.57-2.89,3.34,0,6.29.55,8.83,1.64,2.54,1.09,4.43,2.88,5.66,5.36.67,1.32,1.08,2.68,1.22,4.06s.21,2.89.21,4.51v23.09h-7.35v-8.15l1.22,1.32c-1.69,2.72-3.67,4.71-5.94,5.97s-5.09,1.9-8.48,1.9ZM304.03,87.35c1.9,0,3.53-.34,4.88-1.01,1.35-.67,2.42-1.5,3.22-2.47.8-.98,1.34-1.89,1.62-2.75.44-1.07.69-2.29.75-3.68.06-1.38.09-2.5.09-3.36l2.58.77c-2.53.4-4.7.74-6.51,1.05-1.81.3-3.37.59-4.67.85-1.3.27-2.45.56-3.45.89-.98.35-1.8.75-2.47,1.22-.67.46-1.19,1-1.55,1.6-.36.6-.54,1.31-.54,2.12,0,.93.23,1.75.7,2.46.46.71,1.14,1.27,2.04,1.69s2,.63,3.33.63Z"/>
        <path d="M348.3,94.04c-3.88,0-7.19-.86-9.93-2.59-2.74-1.73-4.84-4.09-6.29-7.09s-2.19-6.39-2.21-10.17c.02-3.86.78-7.27,2.28-10.26s3.63-5.33,6.39-7.04,6.05-2.56,9.86-2.56c4.27,0,7.89,1.07,10.85,3.22s4.89,5.08,5.8,8.79l-8.36,2.26c-.65-2.02-1.73-3.59-3.24-4.72-1.51-1.13-3.23-1.69-5.16-1.69-2.18,0-3.98.52-5.4,1.55-1.42,1.03-2.46,2.46-3.14,4.27-.67,1.81-1.01,3.87-1.01,6.16,0,3.58.8,6.47,2.4,8.67,1.6,2.21,3.98,3.31,7.14,3.31,2.23,0,3.99-.51,5.28-1.53,1.29-1.02,2.26-2.5,2.91-4.42l8.57,1.92c-1.16,3.83-3.19,6.77-6.1,8.83s-6.45,3.08-10.66,3.08Z"/>
        <path d="M371.71,49.66v-7.7h8.39v7.7h-8.39ZM371.71,92.99v-37.62h8.39v37.62h-8.39Z"/>
        <path d="M391.25,92.99v-51.2h8.39v51.2h-8.39Z"/>
        <path d="M410.79,49.66v-7.7h8.39v7.7h-8.39ZM410.79,92.99v-37.62h8.39v37.62h-8.39Z"/>
        <path d="M425.45,61.96v-6.58h26.23v6.58h-26.23ZM451.68,92.99c-2.49.46-4.92.67-7.3.61-2.38-.06-4.51-.5-6.39-1.32-1.88-.82-3.31-2.13-4.28-3.92-.86-1.62-1.31-3.28-1.36-4.98-.05-1.69-.07-3.61-.07-5.75v-32.71h8.36v32.22c0,1.51.02,2.83.05,3.97.04,1.14.27,2.07.71,2.79.84,1.39,2.17,2.17,4.01,2.33,1.83.16,3.92.07,6.27-.28v7.04Z"/>
        <path d="M463.7,109.71l7.25-19.89.14,5.85-16.41-40.3h8.74l11.63,29.82h-2.23l11.32-29.82h8.39l-20.97,54.34h-7.87Z"/>
        <path d="M511.66,92.99v-50.16h30.2v8.4h-21.81v12.5h17.62v8.36h-17.62v20.9h-8.39Z"/>
        <path d="M548.83,49.66v-7.7h8.39v7.7h-8.39ZM548.83,92.99v-37.62h8.39v37.62h-8.39Z"/>
        <path d="M567.6,92.99v-37.62h7.49v11.67h1.01v25.95h-8.5ZM593.69,92.99v-18.11c0-1.18-.08-2.5-.24-3.94-.16-1.44-.54-2.83-1.13-4.16-.59-1.33-1.48-2.43-2.65-3.29-1.17-.86-2.76-1.29-4.75-1.29-1.07,0-2.13.17-3.17.52s-1.99.95-2.84,1.79-1.53,2.01-2.04,3.48c-.51,1.47-.77,3.36-.77,5.66l-4.98-2.12c0-3.21.62-6.11,1.86-8.71,1.24-2.6,3.07-4.67,5.49-6.22,2.42-1.54,5.39-2.32,8.92-2.32,2.79,0,5.08.46,6.9,1.39,1.81.93,3.25,2.11,4.32,3.55s1.86,2.97,2.37,4.6c.51,1.63.84,3.17.99,4.61.15,1.45.23,2.63.23,3.54v21h-8.5Z"/>
        <path d="M625.73,94.04c-3.46,0-6.48-.87-9.06-2.61-2.58-1.74-4.58-4.11-5.99-7.1-1.42-3-2.13-6.38-2.13-10.14s.71-7.2,2.14-10.19c1.43-2.98,3.45-5.34,6.08-7.07s5.71-2.59,9.27-2.59,6.58.86,9,2.59,4.27,4.09,5.52,7.09c1.26,2.99,1.88,6.39,1.88,10.17s-.63,7.11-1.88,10.12c-1.25,3.01-3.12,5.38-5.61,7.12-2.48,1.74-5.56,2.61-9.23,2.61ZM627.02,86.51c2.25,0,4.07-.52,5.45-1.55,1.38-1.03,2.39-2.48,3.03-4.34.64-1.86.96-4.01.96-6.44s-.32-4.61-.96-6.46c-.64-1.85-1.63-3.29-2.98-4.32-1.35-1.03-3.09-1.55-5.23-1.55-2.25,0-4.11.55-5.57,1.66s-2.54,2.59-3.24,4.46c-.7,1.87-1.04,3.94-1.04,6.22s.34,4.38,1.03,6.25,1.74,3.35,3.15,4.44c1.42,1.09,3.22,1.64,5.4,1.64ZM636.46,92.99v-26.4h-1.04v-23.76h8.46v50.16h-7.42Z"/>
        <path d="M670.74,94.04c-3.81,0-7.15-.82-10.03-2.47-2.88-1.65-5.13-3.94-6.74-6.86-1.61-2.93-2.42-6.29-2.42-10.1,0-4.11.79-7.68,2.37-10.71,1.58-3.03,3.77-5.38,6.58-7.05,2.81-1.67,6.06-2.51,9.75-2.51,3.9,0,7.22.91,9.94,2.73,2.73,1.82,4.76,4.39,6.08,7.72s1.82,7.23,1.5,11.74h-8.32v-3.07c-.02-4.09-.74-7.07-2.16-8.95-1.42-1.88-3.65-2.82-6.69-2.82-3.44,0-5.99,1.06-7.66,3.19-1.67,2.12-2.51,5.23-2.51,9.32,0,3.81.84,6.76,2.51,8.85s4.11,3.13,7.31,3.13c2.07,0,3.85-.46,5.35-1.38s2.65-2.25,3.46-3.99l8.29,2.51c-1.44,3.39-3.66,6.03-6.67,7.91-3.01,1.88-6.32,2.82-9.94,2.82ZM657.78,76.52v-6.34h25.88v6.34h-25.88Z"/>
        <path d="M695.57,92.99v-37.62h7.42v9.16l-.91-1.18c.46-1.25,1.09-2.4,1.86-3.43s1.71-1.89,2.8-2.56c.93-.63,1.96-1.12,3.08-1.48,1.13-.36,2.28-.58,3.47-.66s2.33-.03,3.45.16v7.84c-1.11-.33-2.4-.43-3.85-.31-1.45.12-2.76.52-3.92,1.22-1.16.63-2.11,1.43-2.84,2.4s-1.27,2.08-1.62,3.33-.52,2.58-.52,4.02v19.12h-8.43Z"/>
      </g>
    </g>
  </g>
</svg>